# xmcd
#
# Track frame offsets: 
#        150
#        17017
#        29145
#        51477
#        56997
#        66685
#        72525
#        83529
#        91675
#
# Disc length: 1323 seconds
#
# Revision: 0
# Processed by: cddbd v1.5.2PL0 Copyright (c) Steve Scherf et al.
# Submitted via: ExactAudioCopyFreeDBPlugin 1.0
#
DISCID=84052909
DTITLE=河内家菊水丸 - ボブマーリー物語 '97
DYEAR=1997
DGENRE=音頭
TTITLE0=The king was born (lovers ondo)
TTITLE1=We're hungry (ondo acid)
TTITLE2=I was shotted (angaraga)
TTITLE3=No rastaman no cry (cry tanka)
TTITLE4=Exodus from an edge (seicho ondo)
TTITLE5=So much trouble (ondo house)
TTITLE6=As long as one love (ondo in minor)
TTITLE7=Thank you lord (ondo barashi)
TTITLE8=Song for freedom (redemption song)
EXTD=
EXTT0=
EXTT1=
EXTT2=
EXTT3=
EXTT4=
EXTT5=
EXTT6=
EXTT7=
EXTT8=
PLAYORDER=
